<svg width="54" height="23" viewBox="0 0 54 23" fill="none" xmlns="http://www.w3.org/2000/svg">
<path fill-rule="evenodd" clip-rule="evenodd" d="M8.43974 0.000244141C8.89574 0.00424414 10.1717 1.57324 10.1717 2.10924C10.1717 2.64524 9.23874 2.82824 9.23874 2.82824C5.41674 6.41024 2.65674 6.81324 2.65674 6.81324C7.21974 3.13224 8.43974 0.000244141 8.43974 0.000244141ZM21.5067 13.1467C21.8087 12.6907 22.2957 12.0207 22.5507 12.0237C22.9367 12.0277 24.7887 13.5577 24.7887 13.8857C24.7887 14.2137 24.3487 14.2757 24.3487 14.2757C24.3487 14.2757 22.0267 14.3507 19.3077 14.4447C19.3047 16.4897 19.2997 19.9107 19.2997 20.3077C19.2997 20.8527 18.8097 22.6867 17.8067 22.6767C17.2416 22.6711 17.0006 22.3967 16.6977 22.0517C16.4635 21.785 16.1923 21.4762 15.7057 21.2167C15.3487 21.0267 15.0957 20.8367 14.9187 20.6717C14.7247 20.4907 14.8567 20.1697 15.1207 20.1807C15.7387 20.2077 16.6527 20.2467 16.9317 20.2497C17.3667 20.2537 17.3987 20.1207 17.3987 19.4737V14.5117C15.1957 14.5907 13.0887 14.7147 11.8487 14.8007C11.2657 14.8407 10.6897 14.6637 10.2297 14.3027L9.33574 13.6007C9.33574 13.6007 9.92374 13.7537 10.5467 13.7287C11.2943 13.6982 12.3669 13.6554 13.5742 13.6072L13.5784 13.607C14.7811 13.559 16.1171 13.5056 17.3987 13.4537V11.2187C14.9977 11.3047 13.1047 11.3807 11.9287 11.4447C11.5257 11.4657 11.1317 11.3137 10.8467 11.0257L10.0577 10.2307L10.3347 10.2787C10.8937 10.3747 11.4607 10.4117 12.0267 10.3897C14.1798 10.3056 17.4501 10.1736 19.6973 10.0829L19.6998 10.0828L19.7034 10.0826L20.7157 10.0417C20.8247 10.0377 20.9227 9.98274 20.9837 9.89174C21.2857 9.43574 21.7727 8.76574 22.0277 8.76774C22.4137 8.77174 24.2717 10.2837 24.2717 10.6117C24.2717 10.9397 23.8317 11.0017 23.8317 11.0017C23.8317 11.0017 21.6217 11.0727 19.0127 11.1627C19.4657 11.3927 20.0587 11.7437 20.0587 11.9987C20.0587 12.1897 19.8983 12.2898 19.7259 12.3975C19.5255 12.5225 19.3087 12.6578 19.3087 12.9577V13.3757C20.0607 13.3457 20.7257 13.3187 21.2367 13.2977C21.3467 13.2937 21.4457 13.2377 21.5067 13.1467ZM8.35124 4.94654C8.35124 4.94654 6.23724 11.0475 0.000244141 14.8575C0.000244141 14.8575 2.51424 14.6925 6.10924 11.2315L7.90124 9.31754C8.36224 8.77554 8.83524 8.18254 9.31724 7.52954C9.31724 7.52954 10.2112 7.34154 10.2052 6.65954C10.1992 5.97754 8.75024 4.94654 8.35124 4.94654ZM7.98484 10.1757L7.91884 10.9647C7.89784 11.2177 7.88884 11.4717 7.89184 11.7257L7.98484 18.5067C8.00584 20.7967 6.62884 21.4157 6.14984 21.4157C5.67084 21.4147 5.70284 20.9917 5.70284 20.9917C5.99154 18.3848 5.99497 16.2502 5.99776 14.5084V14.5081C5.99817 14.253 5.99857 14.0063 5.99984 13.7677C6.00584 12.8747 6.26784 12.2117 6.84384 11.5337L7.98484 10.1757ZM19.0379 2.24864C19.0559 2.60064 19.0649 3.00364 19.0519 3.43064C19.0323 4.08911 19.0126 5.23185 18.9946 6.27954L18.9945 6.28118L18.9945 6.28225L18.9909 6.49064C17.8942 6.54466 15.3677 6.6565 14.152 6.71031L13.8509 6.72364C13.8439 6.16064 13.8229 5.39864 13.7979 4.62664C14.4222 5.16999 15.1457 5.09322 16.0141 5.00106C16.2725 4.97364 16.5437 4.94486 16.8289 4.93064C18.1349 4.86564 18.3549 4.82864 18.3609 4.52064C18.3669 4.21264 17.8379 3.64164 17.5729 3.63364C17.4421 3.62969 17.3339 3.69695 17.2173 3.76942C17.0978 3.84371 16.9695 3.92347 16.7989 3.93764C16.5229 3.96064 14.5229 4.11064 13.7829 4.16564C13.7639 3.60164 13.7439 3.05364 13.7259 2.59664C13.7259 2.59664 16.7409 2.24564 19.0379 2.24864ZM12.0579 8.89264C12.0579 9.43964 12.3269 9.46364 12.5599 9.46564C12.7369 9.46764 13.3959 8.95864 13.6989 8.05364C13.7239 7.97964 13.7859 7.92564 13.8639 7.92064C15.2339 7.82164 17.9939 7.73864 18.9689 7.71064C18.9609 8.11564 18.9539 8.42264 18.9469 8.55664C18.9189 9.09164 19.1729 9.24764 19.5189 9.25064C19.8649 9.25464 20.7889 8.53764 20.7889 8.03964C20.7889 7.76243 20.8201 6.28965 20.8476 4.98709L20.8476 4.98591L20.8476 4.98546L20.8477 4.97991V4.97988C20.8695 3.95004 20.8889 3.0283 20.8889 2.89064C20.8889 2.74214 21.0533 2.59655 21.226 2.44354C21.4173 2.27405 21.6189 2.09545 21.6189 1.89364C21.6189 1.50964 20.1449 0.276644 19.7189 0.272644C19.4129 0.269644 19.1359 0.647644 19.0039 0.862644C18.9469 0.954644 18.8529 1.01264 18.7459 1.02364C18.1019 1.08664 15.8989 1.29964 13.6799 1.41364C13.6799 1.41364 12.8239 0.842644 11.6309 0.417644C11.6309 0.417644 11.9339 1.06664 11.9339 1.71764C11.9339 2.05781 11.9677 3.84718 12 5.55866L12 5.55934L12 5.55983L12 5.56068C12.0296 7.12886 12.0579 8.63114 12.0579 8.89264ZM14.8178 16.6631C15.2588 17.5341 15.7238 17.8751 15.7238 17.8751C15.7238 17.8751 15.1858 18.3791 14.4808 18.4231C13.7758 18.4661 13.4868 18.2821 13.0348 17.3631C12.5828 16.4451 12.0418 16.1431 12.0418 16.1431C12.0418 16.1431 12.3708 15.7661 13.2328 15.7121C13.9228 15.6701 14.3778 15.7931 14.8178 16.6631ZM37.6602 18.4119C38.1962 18.1169 38.5252 17.5549 38.5252 16.9369V10.6469C38.5252 10.5159 38.5952 10.3949 38.7092 10.3339C38.9362 10.2129 39.2912 9.97694 39.2912 9.68594C39.2912 9.25894 37.4742 8.16694 36.4312 8.13994C36.4312 8.13994 36.7142 15.5579 36.6282 18.9799L37.6602 18.4119ZM50.0739 18.4805C50.3711 17.9547 50.6956 17.3807 51.1175 17.3909C51.8965 17.4109 53.8465 19.4249 53.8465 19.8249C53.8465 20.3759 52.9455 20.3839 52.9455 20.3839C52.9455 20.3839 41.5465 20.0919 33.8025 20.9479C33.3905 20.9939 32.9805 20.8139 32.7235 20.4809L31.6785 19.1959C32.4605 19.3549 33.2545 19.4269 34.0485 19.4089C35.0557 19.3872 36.3154 19.3582 37.701 19.3263C39.0505 19.2953 40.5193 19.2615 41.9905 19.2289C41.9835 16.0589 41.9195 6.42194 41.9035 4.10494C39.4535 4.15694 37.1505 4.21394 35.9405 4.26094C35.4515 4.27994 34.9735 4.08694 34.6265 3.73194L33.6665 2.75094C34.4495 2.90794 35.2445 2.97694 36.0385 2.95794C39.1085 2.88394 44.7115 2.74794 47.3295 2.68194C47.4415 2.67894 47.5405 2.62394 47.6015 2.53194C47.6738 2.4235 47.7463 2.30366 47.8203 2.18127C48.1209 1.68406 48.447 1.14471 48.8915 1.15594C49.3615 1.16794 51.6145 3.06394 51.6145 3.46294C51.6145 3.86194 51.0785 3.92894 51.0785 3.92894C51.0785 3.92894 47.2775 3.99394 43.3785 4.07394C44.0935 4.45194 44.9515 4.98194 44.9515 5.34994C44.9515 5.79194 44.5095 6.23894 44.2445 6.46694C44.1185 6.57494 44.0475 6.72994 44.0455 6.89794C44.0375 7.47494 44.0345 8.76194 44.0355 10.3039C44.3941 10.2949 44.7386 10.2863 45.064 10.2781C45.6018 10.2647 46.0872 10.2525 46.4965 10.2419C46.6065 10.2389 46.7065 10.1849 46.7675 10.0939C46.8363 9.99083 46.904 9.87889 46.9728 9.76536C47.2359 9.33053 47.5133 8.87227 47.9145 8.79694C47.9445 8.78594 47.9745 8.77894 48.0005 8.77894C48.4495 8.76094 50.6115 10.6079 50.6115 10.9909C50.6115 11.3739 50.0975 11.4379 50.0975 11.4379C50.0975 11.4379 47.2675 11.4859 44.0365 11.5499C44.0405 14.5489 44.0515 18.0039 44.0555 19.1829C45.7149 19.1457 47.332 19.1023 48.5135 19.0706C48.9178 19.0598 49.271 19.0503 49.5575 19.0429C49.6715 19.0409 49.7745 18.9829 49.8355 18.8869C49.9139 18.7636 49.9929 18.6238 50.0739 18.4805Z" fill="#28282A"/>
</svg>
