<?xml version="1.0" encoding="UTF-8"?>
<svg id="_圖層_2" data-name="圖層 2" xmlns="http://www.w3.org/2000/svg" width="251.13" height="48.52" viewBox="0 0 251.13 48.52">
  <defs>
    <style>
      .cls-1 {
        fill: #2c7a6b;
      }
    </style>
  </defs>
  <g id="_圖層_1-2" data-name="圖層 1">
    <g>
      <path class="cls-1" d="M21.66,19.23c1.35.12,2.7.32,4.06.35,2.39.06,4.77.02,7.14.02.24-.02.47-.04.69-.07.75-.08.88-.27.76-1-.12-.77-.57-1.3-1.26-1.52-.71-.23-1.47-.41-2.22-.42-2.39-.06-4.78-.05-7.17,0-.61.01-1.24.18-1.81.39-.65.24-.93.81-.89,1.5.02.43.23.71.69.75"/>
      <path class="cls-1" d="M13.13,46.42c3.5,1.06,7.03,1.57,10.58,1.56,3.54.01,7.07-.49,10.58-1.56,5.11-1.55,9.05-4.61,11.03-9.68.14-.36.27-.72.4-1.07-.54.56-1.16,1.04-1.74,1.25-1.99.75-4.7,1.23-4.7,1.23-3.75.62-8.64,1.14-13.02.97-2.98-.11-5.71-.96-8.16-2.65-1.4-.97-2.47-2.22-2.74-3.97-.16-1.04-.75-1.49-1.74-1.56-1.07-.08-2.13-.22-3.2-.28-2.1-.11-4.2-.16-6.29-.27-.46-.02-.94-.11-1.37-.28-.34-.13-.68-.24-1.03-.31-.63-.12-1.22-.43-1.72-.85.39,2.6,1.09,5.19,2.1,7.78,1.98,5.07,5.92,8.13,11.03,9.68"/>
      <path class="cls-1" d="M4.73,20.2c.86.06,1.73.02,2.6.02,0,.04,0,.09.01.13,2.24-.23,4.48-.45,6.71-.7,1.46-.16,2.22-1.35,1.75-2.74-.04-.13-.17-.3-.28-.32-.59-.1-1.22-.32-1.77-.2-2.68.54-5.34,1.14-7.98,1.82-.55.14-1.07.63-1.45,1.09-.41.49-.23.85.4.9"/>
      <path class="cls-1" d="M21.86,26.76c1.05-.02,2.1,0,3.15,0,2.76-.12,5.53-.19,8.22-.91.59-.16.93-.65.88-1.38-.04-.6-.42-.86-.97-.91-.64-.06-1.29-.14-1.94-.13-2.63.03-5.27.08-7.9.13-.22,0-.44.05-.66.09-1.7.34-1.91.88-1.55,2.56.09.43.33.57.76.56"/>
      <path class="cls-1" d="M5.6,27.01c3.21.02,6.42.02,9.64-.02.29,0,.74-.24.84-.49.47-1.14-.29-2.39-1.52-2.55-1.04-.13-2.09-.19-3.13-.28-2.47-.06-4.9.21-7.29.85-.75.2-.86.41-.62,1.16.28.88.89,1.32,2.09,1.33"/>
      <path class="cls-1" d="M4.03,14.25c1.71-.21,3.43-.5,5.15-.67,1.18-.12,2.36-.11,3.54-.2,1.68-.13,3.33-.41,4.85-1.16.59-.29,1.16-.67,1.67-1.09.75-.62.56-1.43-.37-1.72-1.08-.35-2.16-.33-3.22.06-1.26.47-2.51.87-3.85,1.04-1.25.16-2.37.03-3.4.8-1.87,1.4-1.95,1.37-4.17.74.36-.91.57-1.86,1.08-2.62.54-.81,1.26-1.59,2.08-2.12,1.63-1.06,3.45-1.03,5.43-1.25,1.34-.15,2.63-.68,3.97-.89,1.54-.24,3.12-.47,4.58.35.19.11.46.22.52.39.21.59.71.82,1.18,1.11,1.97,1.21,2.42,3.22.94,5.22.67.57,1.51.66,2.31.67,1.18.02,2.37-.05,3.54-.16,1.84-.17,3.57.23,5.32.74,3.12.91,4.52,2.47,4.81,5.81.17,1.98.26,3.97.31,5.95.02.83-.31,1.58-1.05,2.06-.62.4-1.14.87-1.59,1.47-.67.88-1.63,1.23-2.75,1.3-4.04.23-8.07.52-12.11.79-.76.05-1.52.11-2.27.17-.67.06-.83.31-.58.93.38.93,1.23,1.16,2.08,1.2,4.13.21,8.26.35,12.39-.14,2.05-.25,4.04-.71,5.88-1.67,1.8-.93,2.85-2.3,2.72-4.44-.06-1.02,0-2.06.02-3.08,0-.2.14-.39.22-.59.2.1.73.21.9.31.78.5,1.58.97,2.36,1.47.35.22.79.55,1.11.88.28-4.83-.49-9.68-2.33-14.5-1.95-5.13-5.89-8.24-11.03-9.85C30.78.49,27.25-.01,23.7,0c-3.54-.01-7.07.49-10.58,1.56C8.02,3.12,4.08,6.17,2.1,11.24c-.51,1.29-.93,2.59-1.28,3.89.23-.15.55-.28,1.02-.4.69-.23,1.41-.38,2.19-.47"/>
      <path class="cls-1" d="M191.02,9.42c-.31.19-.71.33-1.2.45-1.37.27-2.37.69-3.03,1.26-.33.3-.67.45-1.02.45-.44,0-.68-.23-.73-.7.03-.16.33-.42.92-.77.64-.38,1.55-.72,2.73-1.02,1.04-.16,1.67-.52,1.88-1.09.13-.3.33-.45.6-.45.51,0,.77.25.77.77,1.92.06,2.88.55,2.88,1.47,0,.63-.6,1.02-1.79,1.18-.4.06-.71.11-.92.17.88,0,1.73.06,2.56.19,1.28.23,1.92.76,1.92,1.6,0,.98-1.01,1.47-3.03,1.47-.27,0-.5-.03-.68-.08v1.02c.08,0,.2-.03.34-.08h3.11c.83.06,1.24,1.05,1.24,2.99-.03,1.54-.21,2.36-.55,2.48-.07.27-1.37.41-3.88.41h-.21c.03.3.04.51.04.62,0,.51-.2.77-.6.77-.51,0-.77-.46-.77-1.39v-.58h-1v.66c.18.81.97,1.35,2.35,1.62,1.35.36,2.28.67,2.77.94,1.18.58,1.77,1.33,1.77,2.24,0,.39-.21.58-.62.58-.35,0-.6-.19-.75-.58-.07-.18-.18-.44-.32-.77-.16-.3-.41-.53-.75-.68-.61-.36-1.52-.67-2.73-.94-2.02-.41-3.08-1.19-3.18-2.33v-.75h-.77c-.07.68-.24,1.05-.51,1.11-.04.27-.65.41-1.81.41-.36,0-.58-.19-.66-.58.11-.24.28-.39.49-.45.61,0,.96-.02,1.05-.06.13,0,.21-.14.26-.43-.64.06-1.25.08-1.83.08-.33,0-.52-.2-.58-.6,0-.23.18-.4.53-.51h1.9c-.06-.24-.16-.36-.32-.36h-1.15c-.28,0-.44-.13-.47-.4.06-.3.26-.45.62-.45.74-.04,1.22-.06,1.45-.06.63.04.98.47,1.07,1.28h.75c.02-.85.04-1.74.06-2.65h-.71c-.08.57-.25.88-.51.94-.04.23-.7.34-1.96.34-.35,0-.58-.18-.66-.53.11-.21.28-.38.49-.49.7,0,1.09-.03,1.19-.09.1,0,.17-.06.21-.17h-2.28c-.33,0-.51-.17-.56-.51,0-.28.18-.49.53-.62h2.37c-.04-.21-.15-.32-.32-.32h-1.3c-.28,0-.44-.14-.47-.43.06-.3.26-.45.62-.45.81-.04,1.34-.06,1.6-.06.64.04,1.01.46,1.11,1.26h.66c.01-.44.03-.89.04-1.35h-.36c-2.19,0-3.3-.46-3.33-1.39.04-.95.68-1.52,1.9-1.69.78-.13,1.81-.19,3.07-.19.07-.38.58-.67,1.52-.85.84-.11,1.26-.28,1.26-.49,0-.17-.67-.25-2.01-.25-.13,0-.23-.04-.3-.11M189.32,12.26c-1.51.11-2.28.31-2.33.58,0,.41.77.62,2.3.62.01-.41.02-.81.02-1.19M190.6,19.52h1v-2.65h-.96c-.01.23-.02.48-.02.75-.01.57-.02,1.2-.02,1.9M190.66,15.74h.94v-3.48h-.87v.08c-.03,1.25-.05,2.38-.06,3.39M192.88,13.37c1.52,0,2.28-.15,2.28-.45,0-.27-.76-.46-2.28-.58v1.03ZM192.88,19.95h.02c1.81,0,2.86-.03,3.16-.08.21,0,.32-.54.32-1.62,0-1.21-.12-1.81-.36-1.81-1.12.06-2.13.08-3.01.08h-.13v3.44ZM194.52,18.92c-.11.11-.23.22-.34.32-.26.3-.46.45-.62.45-.27,0-.46-.15-.58-.45,0-.06.08-.16.25-.32.24-.24.46-.45.64-.62-.2-.21-.41-.38-.62-.49-.23-.18-.34-.31-.34-.36.06-.27.27-.43.64-.49.16,0,.38.11.66.34.13.04.25.12.36.23.16-.11.32-.25.49-.4.16-.23.33-.34.51-.34.37.06.55.2.55.43,0,.06-.21.31-.64.77-.09.06-.16.11-.23.17.04.06.08.11.13.15.24.24.43.42.56.53.13.17.19.28.19.32,0,.41-.23.62-.7.62-.13,0-.22-.06-.28-.17-.06-.06-.11-.12-.15-.19-.11-.17-.28-.33-.49-.49"/>
      <path class="cls-1" d="M187.38,32.42c.68,0,1.53.05,2.54.15.5.06.75.26.75.62,0,.44-.25.66-.75.66-.71,0-1.57-.03-2.58-.09-.61,0-1.34.06-2.18.19-.5,0-.78-.26-.83-.77,0-.24.22-.45.66-.62.51-.04,1.31-.09,2.39-.15M189.54,30.01c.44.06.66.29.66.71,0,.34-.22.54-.66.6h-3.86c-.33,0-.51-.23-.55-.68,0-.3.3-.51.92-.62h3.5ZM187.66,34.79c.53,0,1.19.06,1.98.19.44.06.66.22.66.49,0,.41-.22.62-.66.62-.57,0-1.25-.03-2.05-.08-.47,0-1.02.06-1.66.17-.44,0-.68-.23-.73-.71,0-.16.19-.32.58-.49.38-.06,1.01-.12,1.88-.19M187.64,36.86c.53,0,1.18.06,1.96.17.46.06.68.22.68.49,0,.4-.23.6-.68.6h-2.03c-.45,0-1,.03-1.64.08-.44,0-.68-.23-.73-.68,0-.17.2-.33.6-.49.37-.06.98-.11,1.84-.17M186.64,40.25h2.22l.02-.66c.1-.3.32-.5.66-.6.51,0,.77.23.77.68l-.02,4.16c0,1.32-.85,1.99-2.54,1.99s-2.44-.72-2.45-2.16l-.06-4.08c.13-.46.36-.68.71-.68.44,0,.68.23.71.68v.66ZM188.86,41.47l-2.22.08.02,1.96c.03.67.39,1,1.09,1s1.09-.31,1.09-.92l.02-2.13ZM194.98,30.01c.6.06,1.04.23,1.32.53.34.33.51.72.51,1.17v1.3c-.09,1.01-.58,1.52-1.47,1.52h-1.6c-.74.06-1.17.37-1.3.94l-.08,2.05c0,.7.28,1.21.85,1.54.85.47,1.49.84,1.9,1.11,1.71,1.25,2.56,3.67,2.56,7.26,0,.62-.26.94-.77.94-.39,0-.59-.31-.62-.94,0-2.89-.72-4.9-2.16-6.04-.6-.4-1.16-.78-1.69-1.13-.99-.5-1.49-1.41-1.49-2.73.03-.85.08-1.57.15-2.13.23-1.29,1.09-1.97,2.6-2.03h1.11c.43,0,.64-.23.64-.7,0-.84-.36-1.26-1.07-1.26h-2.41c-.48,0-.74-.21-.77-.62,0-.45.48-.71,1.43-.77h2.35Z"/>
      <path class="cls-1" d="M83.76,40.64c-9.58,0-15.13-5.72-15.13-15.7,0-10.84,6.5-16.73,16.3-16.73,2.82,0,5.6.48,7.33,1.47.78,1.17,1.21,3.29,1.04,4.86-2.44-1.16-5.11-1.76-7.8-1.73-6.85,0-11.53,3.47-11.53,11.88s4.25,11.36,10.45,11.36c1.81.02,3.6-.28,5.29-.91v-8.19h-6.85c-.27-.69-.38-1.43-.35-2.17-.04-.74.08-1.48.35-2.17h11.66v15.61c-2.47,1.3-6.54,2.43-10.75,2.43"/>
      <path class="cls-1" d="M118.71,28.28c0,5.29,2.21,7.67,6.98,7.67,5.29,0,7.41-2.99,7.41-7.8V9.46c.48-.3,1.26-.43,2.51-.43s2.04.13,2.52.43v18.34c0,7.98-3.77,12.83-12.57,12.83-8.11,0-12.01-4.03-12.01-11.88V9.46c.48-.3,1.3-.43,2.56-.43s2.12.13,2.6.43v18.82Z"/>
      <path class="cls-1" d="M157.94,9.46c.48-.3,1.3-.43,2.56-.43s2.13.13,2.6.43v29.92c-.48.3-1.35.43-2.6.43s-2.08-.13-2.56-.43V9.46Z"/>
      <path class="cls-1" d="M226,33c0,7.85-2.99,12.57-9.06,15.52-1.3-.78-2.17-2.3-2.38-4.03,4.55-2.47,6.29-5.64,6.29-10.93V9.46c.48-.3,1.3-.43,2.56-.43s2.12.13,2.6.43v23.54Z"/>
      <path class="cls-1" d="M245.97,9.46c.48-.3,1.3-.43,2.56-.43s2.12.13,2.6.43v29.92c-.48.3-1.35.43-2.6.43s-2.08-.13-2.56-.43V9.46Z"/>
    </g>
  </g>
</svg>